<svg width="24" height="24" viewBox="0 0 24 24" fill="none" xmlns="http://www.w3.org/2000/svg">
<path d="M23.204 10.175L13.9081 0.625854C13.504 0.210571 13.091 0 12.6808 0C12.1117 0 11.447 0.438171 11.447 1.67267V7.56042C8.60957 7.75891 5.96968 8.99744 3.9526 11.0911C1.77402 13.3522 0.574219 16.3497 0.574219 19.5311C0.574219 20.9015 0.798101 22.2473 1.23998 23.5312C1.3366 23.8121 1.59524 24 1.88525 24C2.17544 24 2.43391 23.8121 2.53069 23.5312C3.88968 19.5817 7.41957 16.8287 11.447 16.5018V22.3271C11.447 23.5616 12.1115 23.9998 12.6808 23.9998C13.091 23.9998 13.5038 23.7894 13.9079 23.3743L23.2042 13.8248C23.6772 13.3387 23.9379 12.6907 23.9379 11.9998C23.9377 11.3091 23.6771 10.6609 23.204 10.175ZM22.2361 12.8306L12.94 22.3801C12.8961 22.4249 12.8571 22.4608 12.8232 22.4892C12.8186 22.4445 12.8157 22.3909 12.8157 22.3273V15.7667C12.8157 15.579 12.7427 15.3988 12.6125 15.2668C12.4844 15.1366 12.3115 15.0635 12.1313 15.0635C12.1288 15.0635 12.1263 15.0637 12.1238 15.0637C9.68602 15.0916 7.35807 15.8831 5.39161 17.3525C4.01409 18.382 2.88737 19.6853 2.06814 21.1846C1.98507 20.6402 1.94318 20.0881 1.94318 19.5311C1.94318 13.7549 6.51691 9.0033 12.1389 8.93903C12.514 8.93481 12.8159 8.62134 12.8159 8.2359V1.67267C12.8159 1.60913 12.8188 1.55566 12.8232 1.5108C12.8571 1.53918 12.8961 1.57507 12.94 1.62012L22.2361 11.1694C22.4507 11.3899 22.5689 11.6847 22.5689 12C22.5687 12.3151 22.4505 12.6101 22.2361 12.8306Z" fill="#343A40"/>
</svg>
