<svg width="30" height="30" viewBox="0 0 30 30" fill="none" xmlns="http://www.w3.org/2000/svg">
<path d="M26.7857 3.21428H23.5714V1.07145C23.5714 0.479694 23.0917 0 22.5 0C21.9082 0 21.4285 0.479694 21.4285 1.07145V3.21428H8.5714V1.07145C8.5714 0.479694 8.09171 0 7.50002 0C6.90832 0 6.42857 0.479694 6.42857 1.07145V3.21428H3.21428C1.43908 3.21428 0 4.65337 0 6.42857V26.7857C0 28.5609 1.43908 30 3.21428 30H26.7857C28.5609 30 30 28.5609 30 26.7857V6.42857C30 4.65337 28.5609 3.21428 26.7857 3.21428ZM27.8571 26.7857C27.8571 27.3775 27.3774 27.8572 26.7857 27.8572H3.21428C2.62253 27.8572 2.14283 27.3775 2.14283 26.7857V12.8571H27.8571V26.7857ZM27.8571 10.7143H2.14283V6.42857C2.14283 5.83681 2.62253 5.35712 3.21428 5.35712H6.42857V7.49995C6.42857 8.09171 6.90826 8.5714 7.50002 8.5714C8.09177 8.5714 8.57146 8.09171 8.57146 7.49995V5.35712H21.4286V7.49995C21.4286 8.09171 21.9083 8.5714 22.5 8.5714C23.0918 8.5714 23.5715 8.09171 23.5715 7.49995V5.35712H26.7858C27.3775 5.35712 27.8572 5.83681 27.8572 6.42857V10.7143H27.8571Z" fill="#979797"/>
<path d="M8.57134 15H6.4285C5.83675 15 5.35706 15.4797 5.35706 16.0714C5.35706 16.6632 5.83675 17.1429 6.4285 17.1429H8.57134C9.16309 17.1429 9.64279 16.6632 9.64279 16.0714C9.64279 15.4797 9.16309 15 8.57134 15Z" fill="#979797"/>
<path d="M16.0715 15H13.9286C13.3369 15 12.8572 15.4797 12.8572 16.0714C12.8572 16.6632 13.3369 17.1429 13.9286 17.1429H16.0715C16.6632 17.1429 17.1429 16.6632 17.1429 16.0714C17.1429 15.4797 16.6632 15 16.0715 15Z" fill="#979797"/>
<path d="M23.5715 15H21.4286C20.8369 15 20.3572 15.4797 20.3572 16.0714C20.3572 16.6632 20.8369 17.1429 21.4286 17.1429H23.5715C24.1632 17.1429 24.6429 16.6632 24.6429 16.0714C24.6428 15.4797 24.1632 15 23.5715 15Z" fill="#979797"/>
<path d="M8.57134 19.2856H6.4285C5.83675 19.2856 5.35706 19.7653 5.35706 20.3571C5.35706 20.9488 5.83675 21.4285 6.4285 21.4285H8.57134C9.16309 21.4285 9.64279 20.9488 9.64279 20.3571C9.64279 19.7653 9.16309 19.2856 8.57134 19.2856Z" fill="#979797"/>
<path d="M16.0715 19.2856H13.9286C13.3369 19.2856 12.8572 19.7653 12.8572 20.3571C12.8572 20.9488 13.3369 21.4285 13.9286 21.4285H16.0715C16.6632 21.4285 17.1429 20.9488 17.1429 20.3571C17.1429 19.7653 16.6632 19.2856 16.0715 19.2856Z" fill="#979797"/>
<path d="M23.5715 19.2856H21.4286C20.8369 19.2856 20.3572 19.7653 20.3572 20.3571C20.3572 20.9488 20.8369 21.4285 21.4286 21.4285H23.5715C24.1632 21.4285 24.6429 20.9488 24.6429 20.3571C24.6428 19.7653 24.1632 19.2856 23.5715 19.2856Z" fill="#979797"/>
<path d="M8.57061 23.574H6.42777C5.83602 23.574 5.35632 24.0537 5.35632 24.6454C5.35632 25.2372 5.83602 25.7168 6.42777 25.7168H8.57061C9.16236 25.7168 9.64206 25.2371 9.64206 24.6454C9.64206 24.0536 9.16236 23.574 8.57061 23.574Z" fill="#979797"/>
<path d="M16.071 23.574H13.9281C13.3364 23.574 12.8567 24.0537 12.8567 24.6454C12.8567 25.2372 13.3364 25.7169 13.9281 25.7169H16.071C16.6627 25.7169 17.1424 25.2372 17.1424 24.6454C17.1424 24.0537 16.6627 23.574 16.071 23.574Z" fill="#979797"/>
<path d="M23.571 23.574H21.4282C20.8364 23.574 20.3567 24.0537 20.3567 24.6454C20.3567 25.2372 20.8364 25.7169 21.4282 25.7169H23.571C24.1628 25.7169 24.6425 25.2372 24.6425 24.6454C24.6425 24.0537 24.1627 23.574 23.571 23.574Z" fill="#979797"/>
</svg>
